<svg xmlns="http://www.w3.org/2000/svg" xmlns:xlink="http://www.w3.org/1999/xlink" contentStyleType="text/css" data-diagram-type="CLASS" height="883px" preserveAspectRatio="none" style="width:945px;height:883px;background:#FFFFFF;" version="1.1" viewBox="0 0 945 883" width="945px" zoomAndPan="magnify"><defs/><g><!--class IReceiver--><g class="entity" data-entity="IReceiver" data-source-line="14" data-uid="ent0002" id="entity_IReceiver"><rect fill="#E0F2F7" height="86.1309" rx="2.5" ry="2.5" style="stroke:#5B9BD5;stroke-width:0.5;" width="230.4902" x="7" y="287.59"/><ellipse cx="90.7095" cy="303.59" fill="#B4A7E5" rx="11" ry="11" style="stroke:#181818;stroke-width:1;"/><path d="M86.7407,310.09 L86.7407,308.3869 L89.1001,308.1213 L89.1001,299.9181 L86.7407,299.6525 L86.7407,297.9494 L93.8813,297.9494 L93.8813,299.6525 L91.4595,299.9181 L91.4595,308.1213 L93.8813,308.3869 L93.8813,310.09 L86.7407,310.09 Z " fill="#000000"/><text fill="#1B3651" font-family="Open Sans" font-size="14" font-style="italic" lengthAdjust="spacing" textLength="54.5713" x="111.2095" y="309.0212">IReceiver</text><line style="stroke:#5B9BD5;stroke-width:0.5;" x1="8" x2="236.4902" y1="319.59" y2="319.59"/><line style="stroke:#5B9BD5;stroke-width:0.5;" x1="8" x2="236.4902" y1="327.59" y2="327.59"/><ellipse cx="18" cy="342.6227" fill="#84BE84" rx="3" ry="3" style="stroke:#038048;stroke-width:1;"/><text fill="#000000" font-family="Open Sans" font-size="14" lengthAdjust="spacing" textLength="204.4902" x="27" y="346.5539">init(): ResponseStatusContainer</text><ellipse cx="18" cy="361.6881" fill="#84BE84" rx="3" ry="3" style="stroke:#038048;stroke-width:1;"/><text fill="#000000" font-family="Open Sans" font-size="14" lengthAdjust="spacing" textLength="175.0684" x="27" y="365.6193">receive(): optional&lt;Packet&gt;</text></g><!--class PacketAssembler--><g class="entity" data-entity="PacketAssembler" data-source-line="19" data-uid="ent0003" id="entity_PacketAssembler"><rect fill="#E0F2F7" height="200.5234" rx="2.5" ry="2.5" style="stroke:#5B9BD5;stroke-width:0.5;" width="260.6641" x="272.91" y="230.4"/><ellipse cx="343.0843" cy="246.4" fill="#ADD1B2" rx="11" ry="11" style="stroke:#181818;stroke-width:1;"/><path d="M342.5531,253.3219 Q340.8031,253.3219 339.6624,252.5875 Q338.5374,251.8375 337.9749,250.4937 Q337.4281,249.1344 337.4281,247.3375 Q337.4281,245.3062 338.0843,243.8531 Q338.7406,242.4 340.0218,241.6187 Q341.3031,240.8375 343.1781,240.8375 Q344.0687,240.8375 344.7406,241.025 Q345.4124,241.1969 346.0999,241.5406 L345.2874,243.5562 Q344.6624,243.2437 344.1156,243.1187 Q343.5843,242.9937 343.0999,242.9937 Q341.9281,242.9937 341.2249,243.525 Q340.5218,244.0562 340.2249,245.0094 Q339.9281,245.9625 339.9281,247.2281 Q339.9281,249.2437 340.6468,250.2125 Q341.3656,251.1656 342.9593,251.1656 Q343.5531,251.1656 344.1781,251.0094 Q344.8031,250.8531 345.6312,250.4781 L345.6312,252.6969 Q344.8968,253.0094 344.0999,253.1656 Q343.3187,253.3219 342.5531,253.3219 Z " fill="#000000"/><text fill="#1B3651" font-family="Open Sans" font-size="14" lengthAdjust="spacing" textLength="111.8154" x="363.5843" y="251.8312">PacketAssembler</text><line style="stroke:#5B9BD5;stroke-width:0.5;" x1="273.91" x2="532.5741" y1="262.4" y2="262.4"/><rect fill="none" height="6" style="stroke:#C82930;stroke-width:1;" width="6" x="280.91" y="274.4327"/><text fill="#000000" font-family="Open Sans" font-size="14" lengthAdjust="spacing" textLength="197.9551" x="292.91" y="281.3639">chunks : map&lt;uint8_t, Packet&gt;</text><rect fill="none" height="6" style="stroke:#C82930;stroke-width:1;" width="6" x="280.91" y="293.4981"/><text fill="#000000" font-family="Open Sans" font-size="14" lengthAdjust="spacing" textLength="134.0938" x="292.91" y="300.4293">totalChunks : uint8_t</text><rect fill="none" height="6" style="stroke:#C82930;stroke-width:1;" width="6" x="280.91" y="312.5636"/><text fill="#000000" font-family="Open Sans" font-size="14" lengthAdjust="spacing" textLength="161.2734" x="292.91" y="319.4947">packetNumber : uint16_t</text><rect fill="none" height="6" style="stroke:#C82930;stroke-width:1;" width="6" x="280.91" y="331.629"/><text fill="#000000" font-family="Open Sans" font-size="14" lengthAdjust="spacing" textLength="202.1797" x="292.91" y="338.5602">lastCallTime : unsigned long int</text><line style="stroke:#5B9BD5;stroke-width:0.5;" x1="273.91" x2="532.5741" y1="346.6617" y2="346.6617"/><ellipse cx="283.91" cy="361.6944" fill="#84BE84" rx="3" ry="3" style="stroke:#038048;stroke-width:1;"/><text fill="#000000" font-family="Open Sans" font-size="14" lengthAdjust="spacing" textLength="156.6797" x="292.91" y="365.6256">addChunk(Packet) : void</text><ellipse cx="283.91" cy="380.7599" fill="#84BE84" rx="3" ry="3" style="stroke:#038048;stroke-width:1;"/><text fill="#000000" font-family="Open Sans" font-size="14" lengthAdjust="spacing" textLength="164.4863" x="292.91" y="384.691">isComplete(Packet) : bool</text><ellipse cx="283.91" cy="399.8253" fill="#84BE84" rx="3" ry="3" style="stroke:#038048;stroke-width:1;"/><text fill="#000000" font-family="Open Sans" font-size="14" lengthAdjust="spacing" textLength="182.6426" x="292.91" y="403.7564">assemble() : vector&lt;uint8_t&gt;</text><ellipse cx="283.91" cy="418.8907" fill="#84BE84" rx="3" ry="3" style="stroke:#038048;stroke-width:1;"/><text fill="#000000" font-family="Open Sans" font-size="14" lengthAdjust="spacing" textLength="234.6641" x="292.91" y="422.8219">getLastCallTime() : unsigned long int</text></g><!--class PacketDeserializer--><g class="entity" data-entity="PacketDeserializer" data-source-line="29" data-uid="ent0004" id="entity_PacketDeserializer"><rect fill="#E0F2F7" height="162.3926" rx="2.5" ry="2.5" style="stroke:#5B9BD5;stroke-width:0.5;" width="351.5615" x="227.46" y="7"/><ellipse cx="339.0328" cy="23" fill="#ADD1B2" rx="11" ry="11" style="stroke:#181818;stroke-width:1;"/><path d="M338.5015,29.9219 Q336.7515,29.9219 335.6109,29.1875 Q334.4859,28.4375 333.9234,27.0938 Q333.3765,25.7344 333.3765,23.9375 Q333.3765,21.9063 334.0328,20.4531 Q334.689,19 335.9703,18.2188 Q337.2515,17.4375 339.1265,17.4375 Q340.0171,17.4375 340.689,17.625 Q341.3609,17.7969 342.0484,18.1406 L341.2359,20.1563 Q340.6109,19.8438 340.064,19.7188 Q339.5328,19.5938 339.0484,19.5938 Q337.8765,19.5938 337.1734,20.125 Q336.4703,20.6563 336.1734,21.6094 Q335.8765,22.5625 335.8765,23.8281 Q335.8765,25.8438 336.5953,26.8125 Q337.314,27.7656 338.9078,27.7656 Q339.5015,27.7656 340.1265,27.6094 Q340.7515,27.4531 341.5796,27.0781 L341.5796,29.2969 Q340.8453,29.6094 340.0484,29.7656 Q339.2671,29.9219 338.5015,29.9219 Z " fill="#000000"/><text fill="#1B3651" font-family="Open Sans" font-size="14" lengthAdjust="spacing" textLength="119.916" x="359.5328" y="28.4312">PacketDeserializer</text><line style="stroke:#5B9BD5;stroke-width:0.5;" x1="228.46" x2="578.0215" y1="39" y2="39"/><rect fill="none" height="6" style="stroke:#C82930;stroke-width:1;" width="6" x="235.46" y="51.0327"/><text fill="#000000" font-family="Open Sans" font-size="14" lengthAdjust="spacing" textLength="125.2207" x="247.46" y="57.9639">Receiver : IReceiver</text><rect fill="none" height="6" style="stroke:#C82930;stroke-width:1;" width="6" x="235.46" y="70.0981"/><text fill="#000000" font-family="Open Sans" font-size="14" lengthAdjust="spacing" textLength="302.4697" x="247.46" y="77.0293">assemblers : map&lt;uint16_t, PacketAssembler&gt;</text><rect fill="none" height="6" style="stroke:#C82930;stroke-width:1;" width="6" x="235.46" y="89.1636"/><text fill="#000000" font-family="Open Sans" font-size="14" lengthAdjust="spacing" textLength="232.2441" x="247.46" y="96.0947">lastCleanupTime : unsigned long int</text><rect fill="none" height="6" style="stroke:#C82930;stroke-width:1;" width="6" x="235.46" y="108.229"/><text fill="#000000" font-family="Open Sans" font-size="14" lengthAdjust="spacing" textLength="224.4648" x="247.46" y="115.1602">cleanupInterval : unsigned long int</text><line style="stroke:#5B9BD5;stroke-width:0.5;" x1="228.46" x2="578.0215" y1="123.2617" y2="123.2617"/><ellipse cx="238.46" cy="138.2944" fill="#84BE84" rx="3" ry="3" style="stroke:#038048;stroke-width:1;"/><text fill="#000000" font-family="Open Sans" font-size="14" lengthAdjust="spacing" textLength="70.7793" x="247.46" y="142.2256">poll() : void</text><ellipse cx="238.46" cy="157.3599" fill="#84BE84" rx="3" ry="3" style="stroke:#038048;stroke-width:1;"/><text fill="#000000" font-family="Open Sans" font-size="14" lengthAdjust="spacing" textLength="325.5615" x="247.46" y="161.291">getCompletePayload() : optional&lt;vector&lt;uint8_t&gt;&gt;</text></g><!--class PacketValidator--><g class="entity" data-entity="PacketValidator" data-source-line="37" data-uid="ent0005" id="entity_PacketValidator"><rect fill="#E0F2F7" height="86.1309" rx="2.5" ry="2.5" style="stroke:#5B9BD5;stroke-width:0.5;" width="224.9053" x="713.79" y="287.59"/><ellipse cx="771.0991" cy="303.59" fill="#ADD1B2" rx="11" ry="11" style="stroke:#181818;stroke-width:1;"/><path d="M770.5678,310.5119 Q768.8178,310.5119 767.6772,309.7775 Q766.5522,309.0275 765.9897,307.6838 Q765.4428,306.3244 765.4428,304.5275 Q765.4428,302.4963 766.0991,301.0431 Q766.7553,299.59 768.0366,298.8088 Q769.3178,298.0275 771.1928,298.0275 Q772.0835,298.0275 772.7553,298.215 Q773.4272,298.3869 774.1147,298.7306 L773.3022,300.7463 Q772.6772,300.4338 772.1303,300.3088 Q771.5991,300.1838 771.1147,300.1838 Q769.9428,300.1838 769.2397,300.715 Q768.5366,301.2463 768.2397,302.1994 Q767.9428,303.1525 767.9428,304.4181 Q767.9428,306.4338 768.6616,307.4025 Q769.3803,308.3556 770.9741,308.3556 Q771.5678,308.3556 772.1928,308.1994 Q772.8178,308.0431 773.646,307.6681 L773.646,309.8869 Q772.9116,310.1994 772.1147,310.3556 Q771.3335,310.5119 770.5678,310.5119 Z " fill="#000000"/><text fill="#1B3651" font-family="Open Sans" font-size="14" lengthAdjust="spacing" textLength="101.7871" x="791.5991" y="309.0212">PacketValidator</text><line style="stroke:#5B9BD5;stroke-width:0.5;" x1="714.79" x2="937.6953" y1="319.59" y2="319.59"/><line style="stroke:#5B9BD5;stroke-width:0.5;" x1="714.79" x2="937.6953" y1="327.59" y2="327.59"/><ellipse cx="724.79" cy="342.6227" fill="#84BE84" rx="3" ry="3" style="stroke:#038048;stroke-width:1;"/><text fill="#000000" font-family="Open Sans" font-size="14" lengthAdjust="spacing" text-decoration="underline" textLength="133.2324" x="733.79" y="346.5539">isValid(Packet) : bool</text><rect fill="#F24D5C" height="6" style="stroke:#C82930;stroke-width:1;" width="6" x="721.79" y="358.6881"/><text fill="#000000" font-family="Open Sans" font-size="14" lengthAdjust="spacing" text-decoration="underline" textLength="198.9053" x="733.79" y="365.6193">calculateCRC(Packet) : uint16_t</text></g><!--class PacketHeader--><g class="entity" data-entity="PacketHeader" data-source-line="42" data-uid="ent0006" id="entity_PacketHeader"><rect fill="#E0F2F7" height="181.458" rx="2.5" ry="2.5" style="stroke:#5B9BD5;stroke-width:0.5;" width="165.959" x="354.27" y="695.18"/><ellipse cx="388.5" cy="711.18" fill="#F1F1F1" rx="11" ry="11" style="stroke:#181818;stroke-width:1;"/><path d="M388.1719,717.8519 Q387.25,717.8519 386.3594,717.68 Q385.4688,717.4925 384.6875,717.1175 L384.6875,714.8675 Q385.6407,715.3519 386.5157,715.5863 Q387.4063,715.805 388.25,715.805 Q389.125,715.805 389.6875,715.5081 Q390.25,715.2113 390.25,714.43 Q390.25,713.8831 389.9532,713.5863 Q389.6563,713.2738 389.0938,712.9925 Q388.5313,712.7113 387.75,712.305 Q386.9688,711.8831 386.3125,711.3988 Q385.6719,710.8988 385.2969,710.2269 Q384.9219,709.555 384.9219,708.6019 Q384.9219,706.9769 386.0157,706.18 Q387.125,705.3675 388.9063,705.3675 Q389.625,705.3675 390.6094,705.5394 Q391.5938,705.6956 392.5469,706.1488 L391.7657,708.0706 Q390.9219,707.7113 390.2344,707.5706 Q389.5625,707.4144 389.0469,707.4144 Q388.2032,707.4144 387.8125,707.7581 Q387.4375,708.0863 387.4375,708.7269 Q387.4375,709.2113 387.6719,709.5238 Q387.9219,709.8206 388.3907,710.0706 Q388.875,710.3206 389.6094,710.6956 Q390.6094,711.18 391.3125,711.6488 Q392.0157,712.1175 392.3907,712.7425 Q392.7657,713.3519 392.7657,714.2894 Q392.7657,715.4769 392.1875,716.2738 Q391.625,717.055 390.5782,717.4613 Q389.5469,717.8519 388.1719,717.8519 Z " fill="#000000"/><text fill="#1B3651" font-family="Open Sans" font-size="14" lengthAdjust="spacing" textLength="91.2256" x="406.7734" y="716.6112">PacketHeader</text><line style="stroke:#5B9BD5;stroke-width:0.5;" x1="355.27" x2="519.229" y1="727.18" y2="727.18"/><text fill="#000000" font-family="Open Sans" font-size="14" lengthAdjust="spacing" textLength="153.959" x="360.27" y="746.1439">uint16_t packetNumber</text><text fill="#000000" font-family="Open Sans" font-size="14" lengthAdjust="spacing" textLength="126.7793" x="360.27" y="765.2093">uint8_t totalChunks</text><text fill="#000000" font-family="Open Sans" font-size="14" lengthAdjust="spacing" textLength="142.5156" x="360.27" y="784.2747">uint8_t chunkNumber</text><text fill="#000000" font-family="Open Sans" font-size="14" lengthAdjust="spacing" textLength="113.9141" x="360.27" y="803.3402">uint8_t chunkSize</text><text fill="#000000" font-family="Open Sans" font-size="14" lengthAdjust="spacing" textLength="125.7539" x="360.27" y="822.4056">uint8_t payloadSize</text><text fill="#000000" font-family="Open Sans" font-size="14" lengthAdjust="spacing" textLength="126.7793" x="360.27" y="841.471">uint32_t timestamp</text><text fill="#000000" font-family="Open Sans" font-size="14" lengthAdjust="spacing" textLength="152.3867" x="360.27" y="860.5364">uint8_t protocolVersion</text><line style="stroke:#5B9BD5;stroke-width:0.5;" x1="355.27" x2="519.229" y1="868.638" y2="868.638"/></g><!--class PacketPayload--><g class="entity" data-entity="PacketPayload" data-source-line="52" data-uid="ent0007" id="entity_PacketPayload"><rect fill="#E0F2F7" height="67.0654" rx="2.5" ry="2.5" style="stroke:#5B9BD5;stroke-width:0.5;" width="230.2168" x="555.14" y="752.38"/><ellipse cx="618.6835" cy="768.38" fill="#F1F1F1" rx="11" ry="11" style="stroke:#181818;stroke-width:1;"/><path d="M618.3553,775.0519 Q617.4335,775.0519 616.5428,774.88 Q615.6522,774.6925 614.871,774.3175 L614.871,772.0675 Q615.8241,772.5519 616.6991,772.7863 Q617.5897,773.005 618.4335,773.005 Q619.3085,773.005 619.871,772.7081 Q620.4335,772.4113 620.4335,771.63 Q620.4335,771.0831 620.1366,770.7863 Q619.8397,770.4738 619.2772,770.1925 Q618.7147,769.9113 617.9335,769.505 Q617.1522,769.0831 616.496,768.5988 Q615.8553,768.0988 615.4803,767.4269 Q615.1053,766.755 615.1053,765.8019 Q615.1053,764.1769 616.1991,763.38 Q617.3085,762.5675 619.0897,762.5675 Q619.8085,762.5675 620.7928,762.7394 Q621.7772,762.8956 622.7303,763.3488 L621.9491,765.2706 Q621.1053,764.9113 620.4178,764.7706 Q619.746,764.6144 619.2303,764.6144 Q618.3866,764.6144 617.996,764.9581 Q617.621,765.2863 617.621,765.9269 Q617.621,766.4113 617.8553,766.7238 Q618.1053,767.0206 618.5741,767.2706 Q619.0585,767.5206 619.7928,767.8956 Q620.7928,768.38 621.496,768.8488 Q622.1991,769.3175 622.5741,769.9425 Q622.9491,770.5519 622.9491,771.4894 Q622.9491,772.6769 622.371,773.4738 Q621.8085,774.255 620.7616,774.6613 Q619.7303,775.0519 618.3553,775.0519 Z " fill="#000000"/><text fill="#1B3651" font-family="Open Sans" font-size="14" lengthAdjust="spacing" textLength="94.6299" x="639.1835" y="773.8112">PacketPayload</text><line style="stroke:#5B9BD5;stroke-width:0.5;" x1="556.14" x2="784.3568" y1="784.38" y2="784.38"/><text fill="#000000" font-family="Open Sans" font-size="14" lengthAdjust="spacing" textLength="218.2168" x="561.14" y="803.3439">uint8_t data[MAX_PAYLOAD_SIZE]</text><line style="stroke:#5B9BD5;stroke-width:0.5;" x1="556.14" x2="784.3568" y1="811.4454" y2="811.4454"/></g><!--class Packet--><g class="entity" data-entity="Packet" data-source-line="56" data-uid="ent0008" id="entity_Packet"><rect fill="#E0F2F7" height="124.2617" rx="2.5" ry="2.5" style="stroke:#5B9BD5;stroke-width:0.5;" width="165.6035" x="470.44" y="509.92"/><ellipse cx="527.4346" cy="525.92" fill="#F1F1F1" rx="11" ry="11" style="stroke:#181818;stroke-width:1;"/><path d="M527.1065,532.5919 Q526.1846,532.5919 525.294,532.42 Q524.4034,532.2325 523.6221,531.8575 L523.6221,529.6075 Q524.5753,530.0919 525.4503,530.3263 Q526.3409,530.545 527.1846,530.545 Q528.0596,530.545 528.6221,530.2481 Q529.1846,529.9513 529.1846,529.17 Q529.1846,528.6231 528.8878,528.3263 Q528.5909,528.0138 528.0284,527.7325 Q527.4659,527.4513 526.6846,527.045 Q525.9034,526.6231 525.2471,526.1388 Q524.6065,525.6388 524.2315,524.9669 Q523.8565,524.295 523.8565,523.3419 Q523.8565,521.7169 524.9503,520.92 Q526.0596,520.1075 527.8409,520.1075 Q528.5596,520.1075 529.544,520.2794 Q530.5284,520.4356 531.4815,520.8888 L530.7003,522.8106 Q529.8565,522.4513 529.169,522.3106 Q528.4971,522.1544 527.9815,522.1544 Q527.1378,522.1544 526.7471,522.4981 Q526.3721,522.8263 526.3721,523.4669 Q526.3721,523.9513 526.6065,524.2638 Q526.8565,524.5606 527.3253,524.8106 Q527.8096,525.0606 528.544,525.4356 Q529.544,525.92 530.2471,526.3888 Q530.9503,526.8575 531.3253,527.4825 Q531.7003,528.0919 531.7003,529.0294 Q531.7003,530.2169 531.1221,531.0138 Q530.5596,531.795 529.5128,532.2013 Q528.4815,532.5919 527.1065,532.5919 Z " fill="#000000"/><text fill="#1B3651" font-family="Open Sans" font-size="14" lengthAdjust="spacing" textLength="43.1143" x="547.9346" y="531.3512">Packet</text><line style="stroke:#5B9BD5;stroke-width:0.5;" x1="471.44" x2="635.0435" y1="541.92" y2="541.92"/><text fill="#000000" font-family="Open Sans" font-size="14" lengthAdjust="spacing" textLength="144.915" x="476.44" y="560.8839">header: PacketHeader</text><text fill="#000000" font-family="Open Sans" font-size="14" lengthAdjust="spacing" textLength="153.6035" x="476.44" y="579.9493">payload: PacketPayload</text><text fill="#000000" font-family="Open Sans" font-size="14" lengthAdjust="spacing" textLength="79.2764" x="476.44" y="599.0147">crc: uint16_t</text><line style="stroke:#5B9BD5;stroke-width:0.5;" x1="471.44" x2="635.0435" y1="607.1163" y2="607.1163"/><ellipse cx="481.44" cy="622.149" fill="#84BE84" rx="3" ry="3" style="stroke:#038048;stroke-width:1;"/><text fill="#000000" font-family="Open Sans" font-size="14" lengthAdjust="spacing" textLength="126.8408" x="490.44" y="626.0802">calculateCRC(): void</text></g><!--reverse link Packet to PacketHeader--><g class="link" data-entity-1="Packet" data-entity-2="PacketHeader" data-source-line="64" data-uid="lnk9" id="link_Packet_PacketHeader"><path codeLine="64" d="M513.7789,645.1366 C503.4789,663.9566 497.69,674.52 486.57,694.82" fill="none" id="Packet-backto-PacketHeader" style="stroke:#1B3651;stroke-width:1;"/><polygon fill="#1B3651" points="519.54,634.61,513.1506,637.9529,513.7789,645.1366,520.1683,641.7937,519.54,634.61" style="stroke:#1B3651;stroke-width:1;"/></g><!--reverse link Packet to PacketPayload--><g class="link" data-entity-1="Packet" data-entity-2="PacketPayload" data-source-line="65" data-uid="lnk10" id="link_Packet_PacketPayload"><path codeLine="65" d="M593.0412,645.1146 C614.2312,683.4846 634.85,720.81 652.11,752.08" fill="none" id="Packet-backto-PacketPayload" style="stroke:#1B3651;stroke-width:1;"/><polygon fill="#1B3651" points="587.24,634.61,586.6391,641.796,593.0412,645.1146,593.6421,637.9286,587.24,634.61" style="stroke:#1B3651;stroke-width:1;"/></g><!--reverse link PacketDeserializer to PacketAssembler--><g class="link" data-entity-1="PacketDeserializer" data-entity-2="PacketAssembler" data-source-line="66" data-uid="lnk11" id="link_PacketDeserializer_PacketAssembler"><path codeLine="66" d="M403.25,181.6 C403.25,200.99 403.25,209.94 403.25,230.08" fill="none" id="PacketDeserializer-backto-PacketAssembler" style="stroke:#1B3651;stroke-width:1;"/><polygon fill="#1B3651" points="403.25,169.6,399.25,175.6,403.25,181.6,407.25,175.6,403.25,169.6" style="stroke:#1B3651;stroke-width:1;"/><text fill="#000000" font-family="Open Sans" font-size="13" lengthAdjust="spacing" textLength="21.4233" x="381.4629" y="218.6504">0..*</text></g><!--reverse link PacketDeserializer to IReceiver--><g class="link" data-entity-1="PacketDeserializer" data-entity-2="IReceiver" data-source-line="67" data-uid="lnk12" id="link_PacketDeserializer_IReceiver"><path codeLine="67" d="M300.1725,177.402 C254.2225,216.722 209.9,254.65 171.94,287.14" fill="none" id="PacketDeserializer-backto-IReceiver" style="stroke:#1B3651;stroke-width:1;"/><polygon fill="none" points="309.29,169.6,302.1306,170.4618,300.1725,177.402,307.3319,176.5402,309.29,169.6" style="stroke:#1B3651;stroke-width:1;"/></g><!--link IReceiver to Packet--><g class="link" data-entity-1="IReceiver" data-entity-2="Packet" data-source-line="70" data-uid="lnk13" id="link_IReceiver_Packet"><path codeLine="70" d="M173.93,374.05 C197.88,392.68 227.2,414.1 255.25,430.92 C324.86,472.68 403.4211,508.8759 464.4911,534.9259" fill="none" id="IReceiver-to-Packet" style="stroke:#1B3651;stroke-width:1;stroke-dasharray:7.0,7.0;"/><polygon fill="#1B3651" points="470.01,537.28,463.3011,530.0695,465.4109,535.3182,460.1623,537.4281,470.01,537.28" style="stroke:#1B3651;stroke-width:1;"/><text fill="#000000" font-family="Open Sans" font-size="13" lengthAdjust="spacing" textLength="49.4102" x="346.937" y="475.815">receives</text></g><!--link PacketAssembler to Packet--><g class="link" data-entity-1="PacketAssembler" data-entity-2="Packet" data-source-line="71" data-uid="lnk14" id="link_PacketAssembler_Packet"><path codeLine="71" d="M465.56,431.1 C482.22,457.69 496.5546,480.5754 511.5146,504.4554" fill="none" id="PacketAssembler-to-Packet" style="stroke:#1B3651;stroke-width:1;stroke-dasharray:7.0,7.0;"/><polygon fill="#1B3651" points="514.7,509.54,513.3117,499.7895,512.0455,505.3028,506.5322,504.0366,514.7,509.54" style="stroke:#1B3651;stroke-width:1;"/><text fill="#000000" font-family="Open Sans" font-size="13" lengthAdjust="spacing" textLength="63.6797" x="500.467" y="475.815">assembles</text></g><!--link PacketDeserializer to Packet--><g class="link" data-entity-1="PacketDeserializer" data-entity-2="Packet" data-source-line="72" data-uid="lnk15" id="link_PacketDeserializer_Packet"><path codeLine="72" d="M507.65,169.87 C524.86,187.94 540.54,208.35 551.25,230.4 C594.64,319.78 583.088,432.6609 569.228,503.7609" fill="none" id="PacketDeserializer-to-Packet" style="stroke:#1B3651;stroke-width:1;stroke-dasharray:7.0,7.0;"/><polygon fill="#1B3651" points="568.08,509.65,573.7281,501.5816,569.0367,504.7424,565.8759,500.0509,568.08,509.65" style="stroke:#1B3651;stroke-width:1;"/><text fill="#000000" font-family="Open Sans" font-size="13" lengthAdjust="spacing" textLength="70.7192" x="585.537" y="336.055">deserializes</text></g><!--link PacketValidator to Packet--><g class="link" data-entity-1="PacketValidator" data-entity-2="Packet" data-source-line="73" data-uid="lnk16" id="link_PacketValidator_Packet"><path codeLine="73" d="M777.75,374.18 C734.85,411.8 676.2413,463.1942 627.8413,505.6342" fill="none" id="PacketValidator-to-Packet" style="stroke:#1B3651;stroke-width:1;stroke-dasharray:7.0,7.0;"/><polygon fill="#1B3651" points="623.33,509.59,632.7341,506.6639,627.0894,506.2935,627.4598,500.6488,623.33,509.59" style="stroke:#1B3651;stroke-width:1;"/><text fill="#000000" font-family="Open Sans" font-size="13" lengthAdjust="spacing" textLength="53.5869" x="677.777" y="475.815">validates</text></g><!--SRC=[ZPHjJzim4CVVvrDOtOkrG2iU1DigX5HIq90O83gXFMX2hdCK2ySNsKuH8BxxBewJ9cadBI_l_xFlxd_ds2UfCsvuogRmm7Fbpb6xAvu2kyv0indNDhARc9bxKS3cg9Ae0KoCmUSO5HhsOMz-S7Iurn2BOssj8Gh5hMLl4QFlb8kdXS5S9m4_sptVF_zKQcWIC25-UFhbT7heu-kNlqUHr0xC0nV0Bcv1W5o22IcscTJIzGTZTWisGsrXvhZBRKpNSAd11CgKnmeGCoTHStLyG-M1EoaIb5MNWOcraCuLc9219qdycEkdVYaFs9WjKIQbA2bJcYbmq93dY2gS3NVr_IaG3irnJjrylgUydbY0k-JMnLofxp8jmLnRkT2GC8LwGGqwZmwPACgm1AGygwxPOLKR9UFGSHLNO822bddoAa_dv5yfxXtLgcgKiR68zvPDKx1W95VojNOgGwNwRN-elSgW6_wYa2SUg6VGyQJgefxoU3Nn85MMcgOHHHixtVcTD1jJm7MU_REtO719NHJhjkJgFrou8mCIJYsmDnPMxStI1ahnpgJrwgR56AuemPN85NSGtyODj1uERQTr9XSkPFmAFAdNlw9QewqLShIv3wsutwKDl8_FQAYjQ5REhXK_s2-k9qEfapHhumOT2bHtD2MQyreFOHKQJHIdo4V- -zlan_tDvEVbzMHwFxluTVPdxN0uzUXz6BTSyKAeTTpEvILXH6Vjjzl-3yBkKiwFj8IAlrBvagLoeIGQWg9GmzPmsCwy5g_ohhyM3_LsHwEjNdTbDz58zEeHK5rJIR_q1FGhi7w6rg96PcJAwMy7J21jk0yX0xgMGfBUdnJImI1Q_Jv7evFApp7hLVz7suiw5NN1wldLPAlM3foij9fVlPWEl2m58ly2]--></g></svg>