<svg xmlns="http://www.w3.org/2000/svg" xmlns:xlink="http://www.w3.org/1999/xlink" contentStyleType="text/css" data-diagram-type="CLASS" height="2250px" preserveAspectRatio="none" style="width:5175px;height:2250px;background:#FFFFFF;" version="1.1" viewBox="0 0 5175 2250" width="5175px" zoomAndPan="magnify"><defs/><g><!--class ILogger--><g class="entity" data-entity="ILogger" data-source-line="15" data-uid="ent0002" id="entity_ILogger"><rect fill="#E0F2F7" height="1134.1125" rx="15.625" ry="15.625" style="stroke:#5B9BD5;stroke-width:3.125;" width="2118.5608" x="2146.4375" y="43.75"/><ellipse cx="3037.2029" cy="143.75" fill="#B4A7E5" rx="68.75" ry="68.75" style="stroke:#181818;stroke-width:6.25;"/><path d="M3012.3982,184.375 L3012.3982,173.7305 L3027.1443,172.0703 L3027.1443,120.8008 L3012.3982,119.1406 L3012.3982,108.4961 L3057.0271,108.4961 L3057.0271,119.1406 L3041.8904,120.8008 L3041.8904,172.0703 L3057.0271,173.7305 L3057.0271,184.375 L3012.3982,184.375 Z " fill="#000000"/><text fill="#1B3651" font-family="Open Sans" font-size="87.5" font-style="italic" lengthAdjust="spacing" textLength="283.905" x="3165.3279" y="177.6947">ILogger</text><line style="stroke:#5B9BD5;stroke-width:3.125;" x1="2152.6875" x2="4258.7483" y1="243.75" y2="243.75"/><polygon fill="none" points="2215.1875,306.4545,2240.1875,331.4545,2215.1875,356.4545,2190.1875,331.4545" style="stroke:#B38D22;stroke-width:6.25;"/><text fill="#000000" font-family="Open Sans" font-size="87.5" lengthAdjust="spacing" textLength="1192.6575" x="2271.4375" y="362.2742">logDataList: vector&lt;LogData&gt;</text><line style="stroke:#5B9BD5;stroke-width:3.125;" x1="2152.6875" x2="4258.7483" y1="412.9089" y2="412.9089"/><ellipse cx="2215.1875" cy="506.8634" fill="#84BE84" rx="18.75" ry="18.75" style="stroke:#038048;stroke-width:6.25;"/><text fill="#000000" font-family="Open Sans" font-size="87.5" font-style="italic" lengthAdjust="spacing" textLength="1387.2681" x="2271.4375" y="531.4331">logInfo(const string&amp; message): void</text><ellipse cx="2215.1875" cy="626.0223" fill="#84BE84" rx="18.75" ry="18.75" style="stroke:#038048;stroke-width:6.25;"/><text fill="#000000" font-family="Open Sans" font-size="87.5" font-style="italic" lengthAdjust="spacing" textLength="1563.5498" x="2271.4375" y="650.592">logWarning(const string&amp; message): void</text><ellipse cx="2215.1875" cy="745.1813" fill="#84BE84" rx="18.75" ry="18.75" style="stroke:#038048;stroke-width:6.25;"/><text fill="#000000" font-family="Open Sans" font-size="87.5" font-style="italic" lengthAdjust="spacing" textLength="1434.7351" x="2271.4375" y="769.751">logError(const string&amp; message): void</text><ellipse cx="2215.1875" cy="864.3402" fill="#84BE84" rx="18.75" ry="18.75" style="stroke:#038048;stroke-width:6.25;"/><text fill="#000000" font-family="Open Sans" font-size="87.5" font-style="italic" lengthAdjust="spacing" textLength="1956.0608" x="2271.4375" y="888.9099">logSensorData(const SensorData sensorData): void</text><ellipse cx="2215.1875" cy="983.4991" fill="#84BE84" rx="18.75" ry="18.75" style="stroke:#038048;stroke-width:6.25;"/><text fill="#000000" font-family="Open Sans" font-size="87.5" font-style="italic" lengthAdjust="spacing" textLength="657.2754" x="2271.4375" y="1008.0688">getJSONAll(): json</text><ellipse cx="2215.1875" cy="1102.6581" fill="#84BE84" rx="18.75" ry="18.75" style="stroke:#038048;stroke-width:6.25;"/><text fill="#000000" font-family="Open Sans" font-size="87.5" lengthAdjust="spacing" textLength="658.728" x="2271.4375" y="1127.2278">clearData(): void</text></g><!--class ILoggable--><g class="entity" data-entity="ILoggable" data-source-line="25" data-uid="ent0003" id="entity_ILoggable"><rect fill="#E0F2F7" height="657.4768" rx="15.625" ry="15.625" style="stroke:#5B9BD5;stroke-width:3.125;" width="900.6531" x="1061.625" y="1552.8125"/><ellipse cx="1303.5174" cy="1652.8125" fill="#B4A7E5" rx="68.75" ry="68.75" style="stroke:#181818;stroke-width:6.25;"/><path d="M1278.7127,1693.4375 L1278.7127,1682.793 L1293.4588,1681.1328 L1293.4588,1629.8633 L1278.7127,1628.2031 L1278.7127,1617.5586 L1323.3416,1617.5586 L1323.3416,1628.2031 L1308.2049,1629.8633 L1308.2049,1681.1328 L1323.3416,1682.793 L1323.3416,1693.4375 L1278.7127,1693.4375 Z " fill="#000000"/><text fill="#1B3651" font-family="Open Sans" font-size="87.5" font-style="italic" lengthAdjust="spacing" textLength="371.4478" x="1423.9379" y="1686.7572">ILoggable</text><line style="stroke:#5B9BD5;stroke-width:3.125;" x1="1067.875" x2="1956.0281" y1="1752.8125" y2="1752.8125"/><polygon fill="none" points="1130.375,1815.517,1155.375,1840.517,1130.375,1865.517,1105.375,1840.517" style="stroke:#B38D22;stroke-width:6.25;"/><text fill="#000000" font-family="Open Sans" font-size="87.5" lengthAdjust="spacing" textLength="552.4292" x="1186.625" y="1871.3367">source: string</text><line style="stroke:#5B9BD5;stroke-width:3.125;" x1="1067.875" x2="1956.0281" y1="1921.9714" y2="1921.9714"/><ellipse cx="1130.375" cy="2015.9259" fill="#84BE84" rx="18.75" ry="18.75" style="stroke:#038048;stroke-width:6.25;"/><text fill="#000000" font-family="Open Sans" font-size="87.5" lengthAdjust="spacing" textLength="738.1531" x="1186.625" y="2040.4956">getSource(): string</text><ellipse cx="1130.375" cy="2135.0848" fill="#84BE84" rx="18.75" ry="18.75" style="stroke:#038048;stroke-width:6.25;"/><text fill="#000000" font-family="Open Sans" font-size="87.5" font-style="italic" lengthAdjust="spacing" textLength="524.3164" x="1186.625" y="2159.6545">toJSON(): json</text></g><!--class LogMessage--><g class="entity" data-entity="LogMessage" data-source-line="31" data-uid="ent0004" id="entity_LogMessage"><rect fill="#E0F2F7" height="419.1589" rx="15.625" ry="15.625" style="stroke:#5B9BD5;stroke-width:3.125;" width="798.9258" x="43.75" y="1672"/><ellipse cx="180.9756" cy="1772" fill="#ADD1B2" rx="68.75" ry="68.75" style="stroke:#181818;stroke-width:6.25;"/><path d="M177.6553,1815.2617 Q166.7178,1815.2617 159.5889,1810.6719 Q152.5577,1805.9844 149.0421,1797.5859 Q145.6241,1789.0898 145.6241,1777.8594 Q145.6241,1765.1641 149.7256,1756.082 Q153.8272,1747 161.835,1742.1172 Q169.8428,1737.2344 181.5616,1737.2344 Q187.128,1737.2344 191.3272,1738.4063 Q195.5264,1739.4805 199.8233,1741.6289 L194.7452,1754.2266 Q190.8389,1752.2734 187.421,1751.4922 Q184.1006,1750.7109 181.0733,1750.7109 Q173.7491,1750.7109 169.3546,1754.0313 Q164.96,1757.3516 163.1046,1763.3086 Q161.2491,1769.2656 161.2491,1777.1758 Q161.2491,1789.7734 165.7413,1795.8281 Q170.2335,1801.7852 180.1944,1801.7852 Q183.9053,1801.7852 187.8116,1800.8086 Q191.7178,1799.832 196.8936,1797.4883 L196.8936,1811.3555 Q192.3038,1813.3086 187.3233,1814.2852 Q182.4405,1815.2617 177.6553,1815.2617 Z " fill="#000000"/><text fill="#1B3651" font-family="Open Sans" font-size="87.5" lengthAdjust="spacing" textLength="502.3132" x="278.1369" y="1805.9447">LogMessage</text><line style="stroke:#5B9BD5;stroke-width:3.125;" x1="50" x2="836.4258" y1="1872" y2="1872"/><rect fill="none" height="37.5" style="stroke:#C82930;stroke-width:6.25;" width="37.5" x="93.75" y="1947.2045"/><text fill="#000000" font-family="Open Sans" font-size="87.5" lengthAdjust="spacing" textLength="636.4258" x="168.75" y="1990.5242">message: string</text><line style="stroke:#5B9BD5;stroke-width:3.125;" x1="50" x2="836.4258" y1="2041.1589" y2="2041.1589"/></g><!--class LogSensorData--><g class="entity" data-entity="LogSensorData" data-source-line="35" data-uid="ent0005" id="entity_LogSensorData"><rect fill="#E0F2F7" height="419.1589" rx="15.625" ry="15.625" style="stroke:#5B9BD5;stroke-width:3.125;" width="1147.5159" x="2181.9375" y="1672"/><ellipse cx="2423.6953" cy="1772" fill="#ADD1B2" rx="68.75" ry="68.75" style="stroke:#181818;stroke-width:6.25;"/><path d="M2420.375,1815.2617 Q2409.4375,1815.2617 2402.3086,1810.6719 Q2395.2773,1805.9844 2391.7617,1797.5859 Q2388.3438,1789.0898 2388.3438,1777.8594 Q2388.3438,1765.1641 2392.4453,1756.082 Q2396.5469,1747 2404.5547,1742.1172 Q2412.5625,1737.2344 2424.2813,1737.2344 Q2429.8477,1737.2344 2434.0469,1738.4063 Q2438.2461,1739.4805 2442.543,1741.6289 L2437.4648,1754.2266 Q2433.5586,1752.2734 2430.1406,1751.4922 Q2426.8203,1750.7109 2423.793,1750.7109 Q2416.4688,1750.7109 2412.0742,1754.0313 Q2407.6797,1757.3516 2405.8242,1763.3086 Q2403.9688,1769.2656 2403.9688,1777.1758 Q2403.9688,1789.7734 2408.4609,1795.8281 Q2412.9531,1801.7852 2422.9141,1801.7852 Q2426.625,1801.7852 2430.5313,1800.8086 Q2434.4375,1799.832 2439.6133,1797.4883 L2439.6133,1811.3555 Q2435.0234,1813.3086 2430.043,1814.2852 Q2425.1602,1815.2617 2420.375,1815.2617 Z " fill="#000000"/><text fill="#1B3651" font-family="Open Sans" font-size="87.5" lengthAdjust="spacing" textLength="618.6096" x="2544.0859" y="1805.9447">LogSensorData</text><line style="stroke:#5B9BD5;stroke-width:3.125;" x1="2188.1875" x2="3323.2034" y1="1872" y2="1872"/><rect fill="none" height="37.5" style="stroke:#C82930;stroke-width:6.25;" width="37.5" x="2231.9375" y="1947.2045"/><text fill="#000000" font-family="Open Sans" font-size="87.5" lengthAdjust="spacing" textLength="985.0159" x="2306.9375" y="1990.5242">sensorData: SensorData</text><line style="stroke:#5B9BD5;stroke-width:3.125;" x1="2188.1875" x2="3323.2034" y1="2041.1589" y2="2041.1589"/></g><!--class LogData--><g class="entity" data-entity="LogData" data-source-line="39" data-uid="ent0006" id="entity_LogData"><rect fill="#E0F2F7" height="538.3179" rx="15.625" ry="15.625" style="stroke:#5B9BD5;stroke-width:3.125;" width="829.5166" x="1097.1875" y="341.625"/><ellipse cx="1322.2379" cy="441.625" fill="#ADD1B2" rx="68.75" ry="68.75" style="stroke:#181818;stroke-width:6.25;"/><path d="M1318.9175,484.8867 Q1307.98,484.8867 1300.8511,480.2969 Q1293.8199,475.6094 1290.3043,467.2109 Q1286.8863,458.7148 1286.8863,447.4844 Q1286.8863,434.7891 1290.9879,425.707 Q1295.0894,416.625 1303.0972,411.7422 Q1311.105,406.8594 1322.8238,406.8594 Q1328.3902,406.8594 1332.5894,408.0312 Q1336.7886,409.1055 1341.0855,411.2539 L1336.0074,423.8516 Q1332.1011,421.8984 1328.6832,421.1172 Q1325.3629,420.3359 1322.3355,420.3359 Q1315.0113,420.3359 1310.6168,423.6562 Q1306.2222,426.9766 1304.3668,432.9336 Q1302.5113,438.8906 1302.5113,446.8008 Q1302.5113,459.3984 1307.0035,465.4531 Q1311.4957,471.4102 1321.4566,471.4102 Q1325.1675,471.4102 1329.0738,470.4336 Q1332.98,469.457 1338.1558,467.1133 L1338.1558,480.9805 Q1333.566,482.9336 1328.5855,483.9102 Q1323.7027,484.8867 1318.9175,484.8867 Z " fill="#000000"/><text fill="#1B3651" font-family="Open Sans" font-size="87.5" lengthAdjust="spacing" textLength="337.738" x="1438.9157" y="475.5697">LogData</text><line style="stroke:#5B9BD5;stroke-width:3.125;" x1="1103.4375" x2="1920.4541" y1="541.625" y2="541.625"/><rect fill="none" height="37.5" style="stroke:#C82930;stroke-width:6.25;" width="37.5" x="1147.1875" y="616.8295"/><text fill="#000000" font-family="Open Sans" font-size="87.5" lengthAdjust="spacing" textLength="552.4292" x="1222.1875" y="660.1492">source: string</text><rect fill="none" height="37.5" style="stroke:#C82930;stroke-width:6.25;" width="37.5" x="1147.1875" y="735.9884"/><text fill="#000000" font-family="Open Sans" font-size="87.5" lengthAdjust="spacing" textLength="667.0166" x="1222.1875" y="779.3081">data: ILoggable*</text><line style="stroke:#5B9BD5;stroke-width:3.125;" x1="1103.4375" x2="1920.4541" y1="829.9429" y2="829.9429"/></g><!--class SensorData--><g class="entity" data-entity="SensorData" data-source-line="44" data-uid="ent0007" id="entity_SensorData"><rect fill="#E0F2F7" height="657.4768" rx="15.625" ry="15.625" style="stroke:#5B9BD5;stroke-width:3.125;" width="1584.2041" x="3551.125" y="1552.8125"/><ellipse cx="4080.2693" cy="1652.8125" fill="#ADD1B2" rx="68.75" ry="68.75" style="stroke:#181818;stroke-width:6.25;"/><path d="M4076.949,1696.0742 Q4066.0115,1696.0742 4058.8826,1691.4844 Q4051.8513,1686.7969 4048.3357,1678.3984 Q4044.9177,1669.9023 4044.9177,1658.6719 Q4044.9177,1645.9766 4049.0193,1636.8945 Q4053.1208,1627.8125 4061.1287,1622.9297 Q4069.1365,1618.0469 4080.8552,1618.0469 Q4086.4216,1618.0469 4090.6208,1619.2188 Q4094.8201,1620.293 4099.1169,1622.4414 L4094.0388,1635.0391 Q4090.1326,1633.0859 4086.7146,1632.3047 Q4083.3943,1631.5234 4080.3669,1631.5234 Q4073.0427,1631.5234 4068.6482,1634.8438 Q4064.2537,1638.1641 4062.3982,1644.1211 Q4060.5427,1650.0781 4060.5427,1657.9883 Q4060.5427,1670.5859 4065.0349,1676.6406 Q4069.5271,1682.5977 4079.488,1682.5977 Q4083.199,1682.5977 4087.1052,1681.6211 Q4091.0115,1680.6445 4096.1873,1678.3008 L4096.1873,1692.168 Q4091.5974,1694.1211 4086.6169,1695.0977 Q4081.7341,1696.0742 4076.949,1696.0742 Z " fill="#000000"/><text fill="#1B3651" font-family="Open Sans" font-size="87.5" lengthAdjust="spacing" textLength="472.7905" x="4208.3943" y="1686.7572">SensorData</text><line style="stroke:#5B9BD5;stroke-width:3.125;" x1="3557.375" x2="5129.0791" y1="1752.8125" y2="1752.8125"/><rect fill="none" height="37.5" style="stroke:#C82930;stroke-width:6.25;" width="37.5" x="3601.125" y="1828.017"/><text fill="#000000" font-family="Open Sans" font-size="87.5" lengthAdjust="spacing" textLength="796.8567" x="3676.125" y="1871.3367">sensorName: string</text><rect fill="none" height="37.5" style="stroke:#C82930;stroke-width:6.25;" width="37.5" x="3601.125" y="1947.1759"/><text fill="#000000" font-family="Open Sans" font-size="87.5" lengthAdjust="spacing" textLength="1421.7041" x="3676.125" y="1990.4956">dataMap: map&lt;string, variant&lt;...&gt;&gt;</text><line style="stroke:#5B9BD5;stroke-width:3.125;" x1="3557.375" x2="5129.0791" y1="2041.1304" y2="2041.1304"/><ellipse cx="3619.875" cy="2135.0848" fill="#84BE84" rx="18.75" ry="18.75" style="stroke:#038048;stroke-width:6.25;"/><text fill="#000000" font-family="Open Sans" font-size="87.5" lengthAdjust="spacing" textLength="982.5806" x="3676.125" y="2159.6545">getSensorName(): string</text></g><!--link LogData to ILogger--><g class="link" data-entity-1="LogData" data-entity-2="ILogger" data-source-line="53" data-uid="lnk9" id="link_LogData_ILogger"><path codeLine="53" d="M1928.8125,610.75 C2001.125,610.75 1998.4375,610.75 2070.75,610.75" fill="none" id="LogData-to-ILogger" style="stroke:#1B3651;stroke-width:6.25;"/><polygon fill="none" points="2145.75,610.75,2108.25,585.75,2070.75,610.75,2108.25,635.75,2145.75,610.75" style="stroke:#1B3651;stroke-width:6.25;"/><text fill="#000000" font-family="Open Sans" font-size="81.25" lengthAdjust="spacing" textLength="133.8959" x="1976.438" y="586.3275">0..*</text></g><!--reverse link LogData to ILoggable--><g class="link" data-entity-1="LogData" data-entity-2="ILoggable" data-source-line="56" data-uid="lnk10" id="link_LogData_ILoggable"><path codeLine="56" d="M1511.9375,955.8125 C1511.9375,1151.125 1511.9375,1343.25 1511.9375,1551.5" fill="none" id="LogData-backto-ILoggable" style="stroke:#1B3651;stroke-width:6.25;"/><polygon fill="none" points="1511.9375,880.8125,1486.9375,918.3125,1511.9375,955.8125,1536.9375,918.3125,1511.9375,880.8125" style="stroke:#1B3651;stroke-width:6.25;"/><text fill="#000000" font-family="Open Sans" font-size="81.25" lengthAdjust="spacing" textLength="46.4569" x="1465.2997" y="1478.519">1</text></g><!--link LogMessage to ILoggable--><g class="link" data-entity-1="LogMessage" data-entity-2="ILoggable" data-source-line="59" data-uid="lnk11" id="link_LogMessage_ILoggable"><path codeLine="59" d="M844,1881.5625 C916.1875,1881.5625 875.875,1881.5625 948.0625,1881.5625" fill="none" id="LogMessage-to-ILoggable" style="stroke:#1B3651;stroke-width:6.25;"/><polygon fill="none" points="1060.5625,1881.5625,948.0625,1844.0625,948.0625,1919.0625,1060.5625,1881.5625" style="stroke:#1B3651;stroke-width:6.25;"/></g><!--reverse link ILoggable to LogSensorData--><g class="link" data-entity-1="ILoggable" data-entity-2="LogSensorData" data-source-line="62" data-uid="lnk13" id="link_ILoggable_LogSensorData"><path codeLine="62" d="M2076.3125,1881.5625 C2148.5,1881.5625 2108.125,1881.5625 2180.3125,1881.5625" fill="none" id="ILoggable-backto-LogSensorData" style="stroke:#1B3651;stroke-width:6.25;"/><polygon fill="none" points="1963.8125,1881.5625,2076.3125,1919.0625,2076.3125,1844.0625,1963.8125,1881.5625" style="stroke:#1B3651;stroke-width:6.25;"/></g><!--reverse link LogSensorData to SensorData--><g class="link" data-entity-1="LogSensorData" data-entity-2="SensorData" data-source-line="65" data-uid="lnk14" id="link_LogSensorData_SensorData"><path codeLine="65" d="M3407.4375,1881.5625 C3479.8125,1881.5625 3477.1875,1881.5625 3549.5625,1881.5625" fill="none" id="LogSensorData-backto-SensorData" style="stroke:#1B3651;stroke-width:6.25;"/><polygon fill="#1B3651" points="3332.4375,1881.5625,3369.9375,1906.5625,3407.4375,1881.5625,3369.9375,1856.5625,3332.4375,1881.5625" style="stroke:#1B3651;stroke-width:6.25;"/><text fill="#000000" font-family="Open Sans" font-size="81.25" lengthAdjust="spacing" textLength="46.4569" x="3453.6537" y="1858.8947">1</text></g><!--SRC=[bLDTQzj047pNhrWSQ1EtCdQBKsgC8QvZI74IY1xwl9BEyYMdMt5tJYX9_djNdpvZkn0z7JEpixTpA_iaTO46SrY8DMwLMv9sTvWBk2-4XWYr3UmnJUJ-AW4ngTJZqqB2vN0OUD2LCVJoYnGPE1l5to_78uyiZVOvZqmKMWkl0V0tn-GfCxJLQIE_7Yw_BN_K79bKc0OVpt_E5-CAFpH_3mAfdJ1hJ0JSh2ZBX6aQd86YR84ELzAw2JoBn96PhcfiLac-m2l6rXbCt7kflj5hEaz8MmUCIfrzWbnOYvcuO0EIwT6gFsWqQpzUUCr1ce-NHK9RCkKKJUqE0DiTJpfamlsExk-kb3fdpQCbtMWI9R2sRMiFqyMOLwJDrzBM96BItBrnOVkemakNFSQxWwFo2br_xbEl1hUuhGDeceHj89sNh_K6R-Mx02PUBdjL-_h36K98g_9kuFwk_6J7yWSxudABnGHoBAOrynMUqKZKRZeO36OpBxBEn8kDktw6C0pXGIXqajzw8mjR8YNHRZllW4EfBI0VbU8rPoNGkXqrQ8KKAh5s8VI6Wq6_rz5irOQouN-VVRJtrXG_icFGAeXlqnlrTeAcl7qrcHTAv48xwqayFWoDp3RkRNRWu2LxoiIJXDKi_xUXboeK7-c6yS1-SwTgBczb_W40]--></g></svg>