<svg xmlns="http://www.w3.org/2000/svg" xmlns:xlink="http://www.w3.org/1999/xlink" contentStyleType="text/css" data-diagram-type="CLASS" height="3518.75px" preserveAspectRatio="none" style="width:3293px;height:3518px;background:#FFFFFF;" version="1.1" viewBox="0 0 3293 3518" width="3293.75px" zoomAndPan="magnify"><defs/><g><!--class ITransmitter<T>--><g class="entity" data-entity="ITransmitter&lt;T&gt;" data-source-line="15" data-uid="ent0002" id="entity_ITransmitter&lt;T&gt;"><rect fill="#E0F2F7" height="538.3179" rx="15.625" ry="15.625" style="stroke:#5B9BD5;stroke-width:3.125;" width="1812.2681" x="1442.1875" y="43.75"/><ellipse cx="2013.031" cy="143.75" fill="#B4A7E5" rx="68.75" ry="68.75" style="stroke:#181818;stroke-width:6.25;"/><path d="M1988.2263,184.375 L1988.2263,173.7305 L2002.9724,172.0703 L2002.9724,120.8008 L1988.2263,119.1406 L1988.2263,108.4961 L2032.8552,108.4961 L2032.8552,119.1406 L2017.7185,120.8008 L2017.7185,172.0703 L2032.8552,173.7305 L2032.8552,184.375 L1988.2263,184.375 Z " fill="#000000"/><text fill="#1B3651" font-family="Open Sans" font-size="87.5" font-style="italic" lengthAdjust="spacing" textLength="617.4561" x="2141.156" y="177.6947">ITransmitter&lt;T&gt;</text><line style="stroke:#5B9BD5;stroke-width:3.125;" x1="1448.4375" x2="3248.2056" y1="243.75" y2="243.75"/><line style="stroke:#5B9BD5;stroke-width:3.125;" x1="1448.4375" x2="3248.2056" y1="293.75" y2="293.75"/><ellipse cx="1510.9375" cy="387.7045" fill="#84BE84" rx="18.75" ry="18.75" style="stroke:#038048;stroke-width:6.25;"/><text fill="#000000" font-family="Open Sans" font-size="87.5" font-style="italic" lengthAdjust="spacing" textLength="1200.2625" x="1567.1875" y="412.2742">init(): ResponseStatusContainer</text><ellipse cx="1510.9375" cy="506.8634" fill="#84BE84" rx="18.75" ry="18.75" style="stroke:#038048;stroke-width:6.25;"/><text fill="#000000" font-family="Open Sans" font-size="87.5" font-style="italic" lengthAdjust="spacing" textLength="1649.7681" x="1567.1875" y="531.4331">transmit(T data): ResponseStatusContainer</text></g><!--class PacketHeader--><g class="entity" data-entity="PacketHeader" data-source-line="20" data-uid="ent0003" id="entity_PacketHeader"><rect fill="#E0F2F7" height="1134.1125" rx="15.625" ry="15.625" style="stroke:#5B9BD5;stroke-width:3.125;" width="1037.2437" x="1848.5" y="2346.1875"/><ellipse cx="2062.4377" cy="2446.1875" fill="#F1F1F1" rx="68.75" ry="68.75" style="stroke:#181818;stroke-width:6.25;"/><path d="M2060.3869,2487.8867 Q2054.6252,2487.8867 2049.0588,2486.8125 Q2043.4924,2485.6406 2038.6096,2483.2969 L2038.6096,2469.2344 Q2044.5666,2472.2617 2050.0353,2473.7266 Q2055.6017,2475.0938 2060.8752,2475.0938 Q2066.3439,2475.0938 2069.8596,2473.2383 Q2073.3752,2471.3828 2073.3752,2466.5 Q2073.3752,2463.082 2071.5197,2461.2266 Q2069.6642,2459.2734 2066.1486,2457.5156 Q2062.633,2455.7578 2057.7502,2453.2188 Q2052.8674,2450.582 2048.7658,2447.5547 Q2044.7619,2444.4297 2042.4182,2440.2305 Q2040.0744,2436.0313 2040.0744,2430.0742 Q2040.0744,2419.918 2046.9103,2414.9375 Q2053.8439,2409.8594 2064.9767,2409.8594 Q2069.4689,2409.8594 2075.6213,2410.9336 Q2081.7736,2411.9102 2087.7307,2414.7422 L2082.8478,2426.7539 Q2077.5744,2424.5078 2073.2775,2423.6289 Q2069.0783,2422.6523 2065.8557,2422.6523 Q2060.5822,2422.6523 2058.1408,2424.8008 Q2055.7971,2426.8516 2055.7971,2430.8555 Q2055.7971,2433.8828 2057.2619,2435.8359 Q2058.8244,2437.6914 2061.7541,2439.2539 Q2064.7814,2440.8164 2069.3713,2443.1602 Q2075.6213,2446.1875 2080.0158,2449.1172 Q2084.4103,2452.0469 2086.7541,2455.9531 Q2089.0978,2459.7617 2089.0978,2465.6211 Q2089.0978,2473.043 2085.4846,2478.0234 Q2081.9689,2482.9063 2075.426,2485.4453 Q2068.9807,2487.8867 2060.3869,2487.8867 Z " fill="#000000"/><text fill="#1B3651" font-family="Open Sans" font-size="87.5" lengthAdjust="spacing" textLength="570.1599" x="2176.6461" y="2480.1322">PacketHeader</text><line style="stroke:#5B9BD5;stroke-width:3.125;" x1="1854.75" x2="2879.4937" y1="2546.1875" y2="2546.1875"/><text fill="#000000" font-family="Open Sans" font-size="87.5" lengthAdjust="spacing" textLength="962.2437" x="1886" y="2664.7117">uint16_t packetNumber</text><text fill="#000000" font-family="Open Sans" font-size="87.5" lengthAdjust="spacing" textLength="792.3706" x="1886" y="2783.8706">uint8_t totalChunks</text><text fill="#000000" font-family="Open Sans" font-size="87.5" lengthAdjust="spacing" textLength="890.7227" x="1886" y="2903.0295">uint8_t chunkNumber</text><text fill="#000000" font-family="Open Sans" font-size="87.5" lengthAdjust="spacing" textLength="711.9629" x="1886" y="3022.1885">uint8_t chunkSize</text><text fill="#000000" font-family="Open Sans" font-size="87.5" lengthAdjust="spacing" textLength="785.9619" x="1886" y="3141.3474">uint8_t payloadSize</text><text fill="#000000" font-family="Open Sans" font-size="87.5" lengthAdjust="spacing" textLength="792.3706" x="1886" y="3260.5063">uint32_t timestamp</text><text fill="#000000" font-family="Open Sans" font-size="87.5" lengthAdjust="spacing" textLength="952.417" x="1886" y="3379.6653">uint8_t protocolVersion</text><line style="stroke:#5B9BD5;stroke-width:3.125;" x1="1854.75" x2="2879.4937" y1="3430.3" y2="3430.3"/></g><!--class PacketPayload--><g class="entity" data-entity="PacketPayload" data-source-line="30" data-uid="ent0004" id="entity_PacketPayload"><rect fill="#E0F2F7" height="419.1589" rx="15.625" ry="15.625" style="stroke:#5B9BD5;stroke-width:3.125;" width="1438.855" x="135.1875" y="1254.5625"/><ellipse cx="532.3341" cy="1354.5625" fill="#F1F1F1" rx="68.75" ry="68.75" style="stroke:#181818;stroke-width:6.25;"/><path d="M530.2833,1396.2617 Q524.5216,1396.2617 518.9552,1395.1875 Q513.3888,1394.0156 508.506,1391.6719 L508.506,1377.6094 Q514.463,1380.6367 519.9318,1382.1016 Q525.4982,1383.4688 530.7716,1383.4688 Q536.2404,1383.4688 539.756,1381.6133 Q543.2716,1379.7578 543.2716,1374.875 Q543.2716,1371.457 541.4161,1369.6016 Q539.5607,1367.6484 536.045,1365.8906 Q532.5294,1364.1328 527.6466,1361.5938 Q522.7638,1358.957 518.6622,1355.9297 Q514.6583,1352.8047 512.3146,1348.6055 Q509.9708,1344.4063 509.9708,1338.4492 Q509.9708,1328.293 516.8068,1323.3125 Q523.7404,1318.2344 534.8732,1318.2344 Q539.3654,1318.2344 545.5177,1319.3086 Q551.67,1320.2852 557.6271,1323.1172 L552.7443,1335.1289 Q547.4708,1332.8828 543.174,1332.0039 Q538.9747,1331.0273 535.7521,1331.0273 Q530.4786,1331.0273 528.0372,1333.1758 Q525.6935,1335.2266 525.6935,1339.2305 Q525.6935,1342.2578 527.1583,1344.2109 Q528.7208,1346.0664 531.6505,1347.6289 Q534.6779,1349.1914 539.2677,1351.5352 Q545.5177,1354.5625 549.9122,1357.4922 Q554.3068,1360.4219 556.6505,1364.3281 Q558.9943,1368.1367 558.9943,1373.9961 Q558.9943,1381.418 555.381,1386.3984 Q551.8654,1391.2813 545.3224,1393.8203 Q538.8771,1396.2617 530.2833,1396.2617 Z " fill="#000000"/><text fill="#1B3651" font-family="Open Sans" font-size="87.5" lengthAdjust="spacing" textLength="591.4368" x="660.4591" y="1388.5072">PacketPayload</text><line style="stroke:#5B9BD5;stroke-width:3.125;" x1="141.4375" x2="1567.7925" y1="1454.5625" y2="1454.5625"/><text fill="#000000" font-family="Open Sans" font-size="87.5" lengthAdjust="spacing" textLength="1363.855" x="172.6875" y="1573.0867">uint8_t data[MAX_PAYLOAD_SIZE]</text><line style="stroke:#5B9BD5;stroke-width:3.125;" x1="141.4375" x2="1567.7925" y1="1623.7214" y2="1623.7214"/></g><!--class Packet--><g class="entity" data-entity="Packet" data-source-line="34" data-uid="ent0005" id="entity_Packet"><rect fill="#E0F2F7" height="776.6357" rx="15.625" ry="15.625" style="stroke:#5B9BD5;stroke-width:3.125;" width="1035.022" x="1830.8125" y="1075.8125"/><ellipse cx="2187.0289" cy="1175.8125" fill="#F1F1F1" rx="68.75" ry="68.75" style="stroke:#181818;stroke-width:6.25;"/><path d="M2184.9781,1217.5117 Q2179.2164,1217.5117 2173.65,1216.4375 Q2168.0836,1215.2656 2163.2008,1212.9219 L2163.2008,1198.8594 Q2169.1578,1201.8867 2174.6266,1203.3516 Q2180.193,1204.7188 2185.4664,1204.7188 Q2190.9352,1204.7188 2194.4508,1202.8633 Q2197.9664,1201.0078 2197.9664,1196.125 Q2197.9664,1192.707 2196.111,1190.8516 Q2194.2555,1188.8984 2190.7399,1187.1406 Q2187.2242,1185.3828 2182.3414,1182.8438 Q2177.4586,1180.207 2173.3571,1177.1797 Q2169.3531,1174.0547 2167.0094,1169.8555 Q2164.6656,1165.6563 2164.6656,1159.6992 Q2164.6656,1149.543 2171.5016,1144.5625 Q2178.4352,1139.4844 2189.568,1139.4844 Q2194.0602,1139.4844 2200.2125,1140.5586 Q2206.3649,1141.5352 2212.3219,1144.3672 L2207.4391,1156.3789 Q2202.1656,1154.1328 2197.8688,1153.2539 Q2193.6696,1152.2773 2190.4469,1152.2773 Q2185.1735,1152.2773 2182.7321,1154.4258 Q2180.3883,1156.4766 2180.3883,1160.4805 Q2180.3883,1163.5078 2181.8531,1165.4609 Q2183.4156,1167.3164 2186.3453,1168.8789 Q2189.3727,1170.4414 2193.9625,1172.7852 Q2200.2125,1175.8125 2204.6071,1178.7422 Q2209.0016,1181.6719 2211.3453,1185.5781 Q2213.6891,1189.3867 2213.6891,1195.2461 Q2213.6891,1202.668 2210.0758,1207.6484 Q2206.5602,1212.5313 2200.0172,1215.0703 Q2193.5719,1217.5117 2184.9781,1217.5117 Z " fill="#000000"/><text fill="#1B3651" font-family="Open Sans" font-size="87.5" lengthAdjust="spacing" textLength="269.4641" x="2315.1539" y="1209.7572">Packet</text><line style="stroke:#5B9BD5;stroke-width:3.125;" x1="1837.0625" x2="2859.5845" y1="1275.8125" y2="1275.8125"/><text fill="#000000" font-family="Open Sans" font-size="87.5" lengthAdjust="spacing" textLength="905.719" x="1868.3125" y="1394.3367">header: PacketHeader</text><text fill="#000000" font-family="Open Sans" font-size="87.5" lengthAdjust="spacing" textLength="960.022" x="1868.3125" y="1513.4956">payload: PacketPayload</text><text fill="#000000" font-family="Open Sans" font-size="87.5" lengthAdjust="spacing" textLength="495.4773" x="1868.3125" y="1632.6545">crc: uint16_t</text><line style="stroke:#5B9BD5;stroke-width:3.125;" x1="1837.0625" x2="2859.5845" y1="1683.2893" y2="1683.2893"/><ellipse cx="1899.5625" cy="1777.2438" fill="#84BE84" rx="18.75" ry="18.75" style="stroke:#038048;stroke-width:6.25;"/><text fill="#000000" font-family="Open Sans" font-size="87.5" lengthAdjust="spacing" text-decoration="underline" textLength="523.4619" x="1955.8125" y="1801.8135">calculateCRC</text><text fill="#000000" font-family="Open Sans" font-size="87.5" lengthAdjust="spacing" textLength="269.2932" x="2479.2744" y="1801.8135">(): void</text></g><!--class SensorData--><g class="entity" data-entity="SensorData" data-source-line="41" data-uid="ent0006" id="entity_SensorData"><rect fill="#E0F2F7" height="657.4768" rx="15.625" ry="15.625" style="stroke:#5B9BD5;stroke-width:3.125;" width="1584.2041" x="43.75" y="2584.5"/><ellipse cx="572.8943" cy="2684.5" fill="#ADD1B2" rx="68.75" ry="68.75" style="stroke:#181818;stroke-width:6.25;"/><path d="M569.574,2727.7617 Q558.6365,2727.7617 551.5076,2723.1719 Q544.4763,2718.4844 540.9607,2710.0859 Q537.5427,2701.5898 537.5427,2690.3594 Q537.5427,2677.6641 541.6443,2668.582 Q545.7458,2659.5 553.7537,2654.6172 Q561.7615,2649.7344 573.4802,2649.7344 Q579.0466,2649.7344 583.2458,2650.9063 Q587.4451,2651.9805 591.7419,2654.1289 L586.6638,2666.7266 Q582.7576,2664.7734 579.3396,2663.9922 Q576.0193,2663.2109 572.9919,2663.2109 Q565.6677,2663.2109 561.2732,2666.5313 Q556.8787,2669.8516 555.0232,2675.8086 Q553.1677,2681.7656 553.1677,2689.6758 Q553.1677,2702.2734 557.6599,2708.3281 Q562.1521,2714.2852 572.113,2714.2852 Q575.824,2714.2852 579.7302,2713.3086 Q583.6365,2712.332 588.8123,2709.9883 L588.8123,2723.8555 Q584.2224,2725.8086 579.2419,2726.7852 Q574.3591,2727.7617 569.574,2727.7617 Z " fill="#000000"/><text fill="#1B3651" font-family="Open Sans" font-size="87.5" lengthAdjust="spacing" textLength="472.7905" x="701.0193" y="2718.4447">SensorData</text><line style="stroke:#5B9BD5;stroke-width:3.125;" x1="50" x2="1621.7041" y1="2784.5" y2="2784.5"/><rect fill="none" height="37.5" style="stroke:#C82930;stroke-width:6.25;" width="37.5" x="93.75" y="2859.7045"/><text fill="#000000" font-family="Open Sans" font-size="87.5" lengthAdjust="spacing" textLength="796.8567" x="168.75" y="2903.0242">sensorName: string</text><rect fill="none" height="37.5" style="stroke:#C82930;stroke-width:6.25;" width="37.5" x="93.75" y="2978.8634"/><text fill="#000000" font-family="Open Sans" font-size="87.5" lengthAdjust="spacing" textLength="1421.7041" x="168.75" y="3022.1831">dataMap: map&lt;string, variant&lt;...&gt;&gt;</text><line style="stroke:#5B9BD5;stroke-width:3.125;" x1="50" x2="1621.7041" y1="3072.8179" y2="3072.8179"/><ellipse cx="112.5" cy="3166.7723" fill="#84BE84" rx="18.75" ry="18.75" style="stroke:#038048;stroke-width:6.25;"/><text fill="#000000" font-family="Open Sans" font-size="87.5" lengthAdjust="spacing" textLength="982.5806" x="168.75" y="3191.342">getSensorName(): string</text></g><!--reverse link Packet to PacketHeader--><g class="link" data-entity-1="Packet" data-entity-2="PacketHeader" data-source-line="48" data-uid="lnk7" id="link_Packet_PacketHeader"><path codeLine="48" d="M2354.3409,1930.3688 C2356.2784,2080.8063 2357.625,2181.3125 2359.75,2345.375" fill="none" id="Packet-backto-PacketHeader" style="stroke:#1B3651;stroke-width:6.25;"/><polygon fill="#1B3651" points="2353.375,1855.375,2328.86,1893.1938,2354.3409,1930.3688,2378.8559,1892.5499,2353.375,1855.375" style="stroke:#1B3651;stroke-width:6.25;"/></g><!--link PacketPayload to Packet--><g class="link" data-entity-1="PacketPayload" data-entity-2="Packet" data-source-line="49" data-uid="lnk9" id="link_PacketPayload_Packet"><path codeLine="49" d="M1575.25,1464.125 C1659.75,1464.125 1669.3125,1464.125 1753.875,1464.125" fill="none" id="PacketPayload-to-Packet" style="stroke:#1B3651;stroke-width:6.25;"/><polygon fill="#1B3651" points="1828.875,1464.125,1791.375,1439.125,1753.875,1464.125,1791.375,1489.125,1828.875,1464.125" style="stroke:#1B3651;stroke-width:6.25;"/></g><!--link ITransmitter<T> to Packet--><g class="link" data-entity-1="ITransmitter&lt;T&gt;" data-entity-2="Packet" data-source-line="52" data-uid="lnk10" id="link_ITransmitter&lt;T&gt;_Packet"><path codeLine="52" d="M2348.375,583.25 C2348.375,729.125 2348.375,875.4375 2348.375,1036.875" fill="none" id="ITransmitter&lt;T&gt;-to-Packet" style="stroke:#1B3651;stroke-width:6.25;stroke-dasharray:7.0,7.0;"/><polygon fill="#1B3651" points="2348.375,1074.375,2373.375,1018.125,2348.375,1043.125,2323.375,1018.125,2348.375,1074.375" style="stroke:#1B3651;stroke-width:6.25;"/><text fill="#000000" font-family="Open Sans" font-size="81.25" lengthAdjust="spacing" textLength="814.7217" x="2354.625" y="862.6564">transmits &lt;T=Packet&gt;</text></g><!--link PacketPayload to SensorData--><g class="link" data-entity-1="PacketPayload" data-entity-2="SensorData" data-source-line="54" data-uid="lnk11" id="link_PacketPayload_SensorData"><path codeLine="54" d="M851.9375,1676.1875 C848.8125,1912.875 844.1767,2266.8157 840.5517,2544.6907" fill="none" id="PacketPayload-to-SensorData" style="stroke:#1B3651;stroke-width:6.25;stroke-dasharray:7.0,7.0;"/><polygon fill="#1B3651" points="840.0625,2582.1875,865.7941,2526.2684,840.4701,2550.9402,815.7984,2525.6162,840.0625,2582.1875" style="stroke:#1B3651;stroke-width:6.25;"/><text fill="#000000" font-family="Open Sans" font-size="81.25" lengthAdjust="spacing" textLength="320.7947" x="853.1875" y="2133.0314">contains</text></g><!--SRC=[VLDTRzf047pthrZHXvAcK988sbek4Xz1YTGaA4PLFrIXvNp02VlEkbidIgFyzzxP1x9BL3_ExCxEhFVCJiWSDMOmvMiiKfefIRUOSRZBkOGOfGdCQpKnFQKSLYfDQdoI2nZqUa4D6ccj7YSgLHhUdAqk1lsp6kc4cboDP2aQ0yy1s6-CRBVHgf29Bx_ipSvd7ojEwOHhZ_V7dyVJVeaVYxy4WP34zHePXzRrGjjqcI2BH8jXouzwnfKXZOnUu1I45DG-2U6Ucrn9msD2Aip4AgEGN1ytaDTiBo11ml-qMZEshM04SnkEqnL76yERAApFiy6I82-vso9R-McE-MG9KeJfP5l8dMdWp46lr9TuBFxm1fhZKwemQU0NvqvUPDmGPdcpN2jIJANVk3P2oQCCyqgk5i9rkKNykXbzNyv7FxxUZQRB-FhdvU-ZPj-rBVSGDhPI4jvhs9nLKaopyB2p4Zc5g1WoJ5cH8l79_IJwK0pTdtnG8d6Zg-kAkJHAJwr1Fxq3feJS4mZ1-XDoumaNumRp43BCeufv3m-e1KgAkjtkSEWdRpZ51n4tqylOgM_jELX3TdTcAt8J-EJlEfrctWEUyZLr_abiLUgt2mctJpKneEH-a-t7hNsy2n368oV1yRbRn_lw45hxmpKGBRvKyB0L1Ct_wbfgAxDjhBfdq_eB]--></g></svg>